<mxfile host="app.diagrams.net" modified="2021-05-08T09:10:52.349Z" agent="5.0 (Windows NT 10.0; Win64; x64) AppleWebKit/537.36 (KHTML, like Gecko) Chrome/90.0.4430.93 Safari/537.36" etag="FnClh9iooxDlENjjqbEK" version="14.6.11" type="github">
  <diagram id="kgpKYQtTHZ0yAKxKKP6v" name="Page-1">
    <mxGraphModel dx="868" dy="492" grid="1" gridSize="10" guides="1" tooltips="1" connect="1" arrows="1" fold="1" page="1" pageScale="1" pageWidth="850" pageHeight="1100" math="0" shadow="0">
      <root>
        <mxCell id="0" />
        <mxCell id="1" parent="0" />
        <mxCell id="3nuBFxr9cyL0pnOWT2aG-1" value="Home Page" style="shape=umlLifeline;perimeter=lifelinePerimeter;container=1;collapsible=0;recursiveResize=0;rounded=0;shadow=0;strokeWidth=1;" parent="1" vertex="1">
          <mxGeometry x="30" y="80" width="100" height="300" as="geometry" />
        </mxCell>
        <mxCell id="3nuBFxr9cyL0pnOWT2aG-5" value="Login" style="shape=umlLifeline;perimeter=lifelinePerimeter;container=1;collapsible=0;recursiveResize=0;rounded=0;shadow=0;strokeWidth=1;" parent="1" vertex="1">
          <mxGeometry x="315" y="80" width="100" height="300" as="geometry" />
        </mxCell>
        <mxCell id="YFQ4O09YVXDUIr4XjvXC-12" value="" style="endArrow=classic;html=1;" edge="1" parent="1" source="3nuBFxr9cyL0pnOWT2aG-5" target="3nuBFxr9cyL0pnOWT2aG-2">
          <mxGeometry width="50" height="50" relative="1" as="geometry">
            <mxPoint x="280" y="270" as="sourcePoint" />
            <mxPoint x="330" y="220" as="targetPoint" />
            <Array as="points">
              <mxPoint x="140" y="224" />
            </Array>
          </mxGeometry>
        </mxCell>
        <mxCell id="YFQ4O09YVXDUIr4XjvXC-13" value="" style="endArrow=classic;html=1;entryX=0;entryY=0.091;entryDx=0;entryDy=0;entryPerimeter=0;" edge="1" parent="1" target="3nuBFxr9cyL0pnOWT2aG-6">
          <mxGeometry width="50" height="50" relative="1" as="geometry">
            <mxPoint x="90" y="180" as="sourcePoint" />
            <mxPoint x="140" y="130" as="targetPoint" />
          </mxGeometry>
        </mxCell>
        <mxCell id="YFQ4O09YVXDUIr4XjvXC-14" value="Login Button Click" style="text;html=1;align=center;verticalAlign=middle;resizable=0;points=[];autosize=1;strokeColor=none;" vertex="1" parent="1">
          <mxGeometry x="136" y="160" width="110" height="20" as="geometry" />
        </mxCell>
        <mxCell id="YFQ4O09YVXDUIr4XjvXC-15" value="Login Credentails&lt;br&gt;&lt;br&gt;username&lt;br&gt;password" style="whiteSpace=wrap;html=1;aspect=fixed;" vertex="1" parent="1">
          <mxGeometry x="510" y="30" width="120" height="120" as="geometry" />
        </mxCell>
        <mxCell id="YFQ4O09YVXDUIr4XjvXC-17" value="Login User(username,passoword)" style="text;html=1;align=center;verticalAlign=middle;resizable=0;points=[];autosize=1;strokeColor=none;" vertex="1" parent="1">
          <mxGeometry x="150" y="200" width="200" height="20" as="geometry" />
        </mxCell>
        <mxCell id="YFQ4O09YVXDUIr4XjvXC-19" value="" style="endArrow=classic;html=1;exitX=-0.4;exitY=0.389;exitDx=0;exitDy=0;exitPerimeter=0;" edge="1" parent="1" target="3nuBFxr9cyL0pnOWT2aG-2">
          <mxGeometry width="50" height="50" relative="1" as="geometry">
            <mxPoint x="366.5" y="270" as="sourcePoint" />
            <mxPoint x="90" y="270.09000000000003" as="targetPoint" />
            <Array as="points">
              <mxPoint x="150.5" y="270.09000000000003" />
              <mxPoint x="110" y="270" />
            </Array>
          </mxGeometry>
        </mxCell>
        <mxCell id="YFQ4O09YVXDUIr4XjvXC-20" value="save jwt response in local storage" style="text;html=1;align=center;verticalAlign=middle;resizable=0;points=[];autosize=1;strokeColor=none;" vertex="1" parent="1">
          <mxGeometry x="120" y="250" width="200" height="20" as="geometry" />
        </mxCell>
        <mxCell id="YFQ4O09YVXDUIr4XjvXC-21" value="" style="endArrow=classic;html=1;exitX=-0.4;exitY=0.389;exitDx=0;exitDy=0;exitPerimeter=0;" edge="1" parent="1" target="3nuBFxr9cyL0pnOWT2aG-2">
          <mxGeometry width="50" height="50" relative="1" as="geometry">
            <mxPoint x="366.5" y="310" as="sourcePoint" />
            <mxPoint x="100" y="310" as="targetPoint" />
            <Array as="points">
              <mxPoint x="340" y="310" />
              <mxPoint x="150.5" y="310.09000000000003" />
            </Array>
          </mxGeometry>
        </mxCell>
        <mxCell id="YFQ4O09YVXDUIr4XjvXC-22" value="dispatch (getUserApi(username))" style="text;html=1;align=center;verticalAlign=middle;resizable=0;points=[];autosize=1;strokeColor=none;" vertex="1" parent="1">
          <mxGeometry x="115" y="290" width="190" height="20" as="geometry" />
        </mxCell>
        <mxCell id="YFQ4O09YVXDUIr4XjvXC-27" value="" style="endArrow=classic;startArrow=classic;html=1;" edge="1" parent="1">
          <mxGeometry width="50" height="50" relative="1" as="geometry">
            <mxPoint x="260" y="290" as="sourcePoint" />
            <mxPoint x="260" y="220" as="targetPoint" />
          </mxGeometry>
        </mxCell>
        <mxCell id="YFQ4O09YVXDUIr4XjvXC-30" value="" style="endArrow=classic;html=1;exitX=-0.4;exitY=0.389;exitDx=0;exitDy=0;exitPerimeter=0;" edge="1" parent="1">
          <mxGeometry width="50" height="50" relative="1" as="geometry">
            <mxPoint x="363.25" y="350" as="sourcePoint" />
            <mxPoint x="90" y="350" as="targetPoint" />
            <Array as="points">
              <mxPoint x="147.25" y="350.09000000000003" />
            </Array>
          </mxGeometry>
        </mxCell>
        <mxCell id="YFQ4O09YVXDUIr4XjvXC-31" value="save getUserApi response in local storage" style="text;html=1;align=center;verticalAlign=middle;resizable=0;points=[];autosize=1;strokeColor=none;" vertex="1" parent="1">
          <mxGeometry x="100" y="330" width="240" height="20" as="geometry" />
        </mxCell>
        <mxCell id="3nuBFxr9cyL0pnOWT2aG-2" value="" style="points=[];perimeter=orthogonalPerimeter;rounded=0;shadow=0;strokeWidth=1;" parent="1" vertex="1">
          <mxGeometry x="75" y="140" width="10" height="330" as="geometry" />
        </mxCell>
        <mxCell id="3nuBFxr9cyL0pnOWT2aG-6" value="" style="points=[];perimeter=orthogonalPerimeter;rounded=0;shadow=0;strokeWidth=1;" parent="1" vertex="1">
          <mxGeometry x="360" y="150" width="10" height="330" as="geometry" />
        </mxCell>
        <mxCell id="YFQ4O09YVXDUIr4XjvXC-33" value="&lt;b&gt;&lt;font style=&quot;font-size: 16px&quot;&gt;Login Process From Home Page&lt;/font&gt;&lt;/b&gt;" style="text;html=1;align=center;verticalAlign=middle;resizable=0;points=[];autosize=1;strokeColor=none;" vertex="1" parent="1">
          <mxGeometry x="61" y="20" width="260" height="20" as="geometry" />
        </mxCell>
        <mxCell id="YFQ4O09YVXDUIr4XjvXC-35" value="" style="endArrow=none;dashed=1;html=1;dashPattern=1 3;strokeWidth=2;entryX=-0.3;entryY=0.876;entryDx=0;entryDy=0;entryPerimeter=0;" edge="1" parent="1" target="3nuBFxr9cyL0pnOWT2aG-6">
          <mxGeometry width="50" height="50" relative="1" as="geometry">
            <mxPoint x="90" y="440" as="sourcePoint" />
            <mxPoint x="165" y="410" as="targetPoint" />
          </mxGeometry>
        </mxCell>
        <mxCell id="YFQ4O09YVXDUIr4XjvXC-36" value="" style="endArrow=none;dashed=1;html=1;dashPattern=1 3;strokeWidth=2;exitX=1;exitY=0.779;exitDx=0;exitDy=0;exitPerimeter=0;entryX=0.1;entryY=0.745;entryDx=0;entryDy=0;entryPerimeter=0;" edge="1" parent="1" source="3nuBFxr9cyL0pnOWT2aG-2" target="3nuBFxr9cyL0pnOWT2aG-6">
          <mxGeometry width="50" height="50" relative="1" as="geometry">
            <mxPoint x="180" y="420" as="sourcePoint" />
            <mxPoint x="350" y="390" as="targetPoint" />
            <Array as="points" />
          </mxGeometry>
        </mxCell>
        <mxCell id="YFQ4O09YVXDUIr4XjvXC-37" value="Fetch User From Local Storage" style="text;html=1;align=center;verticalAlign=middle;resizable=0;points=[];autosize=1;strokeColor=none;" vertex="1" parent="1">
          <mxGeometry x="125" y="370" width="180" height="20" as="geometry" />
        </mxCell>
        <mxCell id="YFQ4O09YVXDUIr4XjvXC-38" value="" style="endArrow=none;dashed=1;html=1;dashPattern=1 3;strokeWidth=2;exitX=1;exitY=0.779;exitDx=0;exitDy=0;exitPerimeter=0;entryX=0.1;entryY=0.745;entryDx=0;entryDy=0;entryPerimeter=0;" edge="1" parent="1" source="3nuBFxr9cyL0pnOWT2aG-2" target="3nuBFxr9cyL0pnOWT2aG-6">
          <mxGeometry width="50" height="50" relative="1" as="geometry">
            <mxPoint x="85" y="397.06999999999994" as="sourcePoint" />
            <mxPoint x="361" y="395.85" as="targetPoint" />
            <Array as="points">
              <mxPoint x="330" y="396" />
            </Array>
          </mxGeometry>
        </mxCell>
        <mxCell id="YFQ4O09YVXDUIr4XjvXC-39" value="Display Firstname and Lastname" style="text;html=1;align=center;verticalAlign=middle;resizable=0;points=[];autosize=1;strokeColor=none;" vertex="1" parent="1">
          <mxGeometry x="125" y="410" width="190" height="20" as="geometry" />
        </mxCell>
      </root>
    </mxGraphModel>
  </diagram>
</mxfile>
